<svg xmlns="http://www.w3.org/2000/svg" viewBox="0 0 1600 600" preserveAspectRatio="xMidYMid slice" role="img"><defs><linearGradient id="sky10" x1="0" y1="0" x2="0" y2="1"><stop offset="0" stop-color="#f7d9a0"/><stop offset=".55" stop-color="#eda75f"/><stop offset="1" stop-color="#d2541f"/></linearGradient></defs><rect width="1600" height="600" fill="url(#sky10)"/><circle cx="1200" cy="150" r="108" fill="#ffe9a8" opacity=".28"/><circle cx="1200" cy="150" r="70" fill="#ffe9a8"/><path d="M320 130 q9 -7 18 0 M338 130 q9 -7 18 0" stroke="#0f2a43" stroke-width="3" fill="none" stroke-linecap="round" opacity=".55"/><path d="M390 102 q7.2 -5.6000000000000005 14.4 0 M404.4 102 q7.2 -5.6000000000000005 14.4 0" stroke="#0f2a43" stroke-width="2.4000000000000004" fill="none" stroke-linecap="round" opacity=".55"/><path d="M450 140 q5.8500000000000005 -4.55 11.700000000000001 0 M461.7 140 q5.8500000000000005 -4.55 11.700000000000001 0" stroke="#0f2a43" stroke-width="1.9500000000000002" fill="none" stroke-linecap="round" opacity=".55"/><path d="M0 395 L240 380 L520 400 L800 382 L1090 402 L1370 384 L1600 396 V600 H0 Z" fill="#a34a20"/><rect x="0" y="470" width="1600" height="130" fill="#7fb6b0"/><rect x="0" y="540" width="1600" height="60" fill="#155e5a" opacity=".55"/><path d="M180 470 H1420 V430 H180 Z M330 470 Q400 400 470 470 Z M610 470 Q680 400 750 470 Z M890 470 Q960 400 1030 470 Z M1170 470 Q1240 400 1310 470 Z" fill="#0f2a43" fill-rule="evenodd"/><rect x="180" y="415" width="1240" height="18" fill="#0f2a43"/><rect x="220" y="392" width="10" height="24" fill="#0f2a43"/><rect x="338" y="392" width="10" height="24" fill="#0f2a43"/><rect x="456" y="392" width="10" height="24" fill="#0f2a43"/><rect x="574" y="392" width="10" height="24" fill="#0f2a43"/><rect x="692" y="392" width="10" height="24" fill="#0f2a43"/><rect x="810" y="392" width="10" height="24" fill="#0f2a43"/><rect x="928" y="392" width="10" height="24" fill="#0f2a43"/><rect x="1046" y="392" width="10" height="24" fill="#0f2a43"/><rect x="1164" y="392" width="10" height="24" fill="#0f2a43"/><rect x="1282" y="392" width="10" height="24" fill="#0f2a43"/><path d="M0 600 Q240 560 420 585 L520 600 Z" fill="#0f2a43"/><path d="M1600 600 Q1380 558 1180 584 L1100 600 Z" fill="#0f2a43"/></svg>